<?xml version="1.0" encoding="UTF-8"?>
<svg width="28px" height="20px" viewBox="0 0 28 20" version="1.1" xmlns="http://www.w3.org/2000/svg" xmlns:xlink="http://www.w3.org/1999/xlink">
    <!-- Generator: Sketch 43.1 (39012) - http://www.bohemiancoding.com/sketch -->
    <title>tag-icon</title>
    <desc>Created with Sketch.</desc>
    <defs></defs>
    <g id="Page-1" stroke="none" stroke-width="1" fill="none" fill-rule="evenodd">
        <g id="tag-icon" fill-rule="nonzero" fill="#9EABB3">
            <path d="M21.5240507,0.014107567 L17.2225191,0.014107567 C14.6006488,0.014107567 13.6488781,0.26225933 11.8455247,1.55036884 L1.09153594,9.2317894 C-0.177395719,10.1381692 -0.479686781,11.9502434 1.09153594,13.0724997 L9.69479094,19.2176818 C10.5431438,19.8237623 11.5755958,19.9858924 12.4843556,19.9858924 C13.5768949,19.9858924 14.4920504,19.6316869 15.0717853,19.2176818 L25.8257741,11.5362613 C27.6990321,10.1981971 27.9765399,9.46527683 27.9765399,7.69555098 L27.9765399,4.62302844 C27.9765399,1.13403397 26.408611,0.014107567 21.5240507,0.014107567 L21.5240507,0.014107567 Z M20.4487797,7.69552815 C18.6699858,7.69552815 17.2225511,6.66162342 17.2225511,5.39107913 C17.2225511,4.12064906 18.6700177,3.08663011 20.4487797,3.08663011 C22.2273498,3.08663011 23.6748165,4.12064904 23.6748165,5.39107913 C23.6747845,6.66162342 22.2273179,7.69552815 20.4487797,7.69552815 L20.4487797,7.69552815 Z" id="Shape"></path>
        </g>
    </g>
</svg>